<?xml version="1.0" standalone="no"?>
<!DOCTYPE svg PUBLIC "-//W3C//DTD SVG 20010904//EN"
 "http://www.w3.org/TR/2001/REC-SVG-20010904/DTD/svg10.dtd">
<svg version="1.0" xmlns="http://www.w3.org/2000/svg"
 width="700.000000pt" height="700.000000pt" viewBox="0 0 700.000000 700.000000"
 preserveAspectRatio="xMidYMid meet">
<metadata>
Created by potrace 1.11, written by Peter Selinger 2001-2013
</metadata>
<g transform="translate(0.000000,700.000000) scale(0.100000,-0.100000)"
fill="#000000" stroke="none">
<path d="M3255 5848 c-27 -4 -70 -10 -95 -14 -348 -49 -701 -246 -900 -504
-19 -25 -37 -47 -40 -50 -11 -10 -87 -136 -113 -188 -73 -146 -123 -314 -144
-481 -4 -31 -7 -1041 -7 -2246 l-1 -2190 450 0 450 0 2 560 c1 308 2 570 3
583 l0 23 43 -24 c130 -72 351 -148 512 -176 127 -22 176 -26 350 -26 199 0
293 9 395 35 19 5 49 12 66 14 111 19 310 108 444 197 261 174 446 477 495
809 4 25 11 70 15 100 9 61 6 375 -4 430 -79 433 -306 715 -709 881 l-90 37
59 37 c246 157 416 365 498 607 8 26 18 62 21 80 3 17 8 34 10 38 17 27 25
267 13 382 -16 146 -88 365 -157 478 -17 28 -31 52 -31 55 0 13 -79 108 -147
177 -209 214 -497 335 -893 378 -92 10 -427 9 -495 -2z m371 -733 c226 -47
372 -194 415 -419 9 -49 13 -229 5 -291 -15 -130 -70 -265 -135 -332 -116
-120 -237 -160 -489 -162 -81 -1 -148 -4 -151 -7 -8 -8 -6 -656 2 -661 5 -3
104 -6 220 -8 244 -3 324 -16 432 -70 179 -88 282 -245 321 -485 14 -89 9
-262 -10 -335 -66 -252 -244 -417 -496 -462 -14 -2 -36 -6 -50 -9 -31 -5 -230
-5 -290 1 -176 17 -318 54 -448 117 -45 22 -85 44 -87 49 -8 11 -7 2474 1
2529 44 336 272 554 585 559 56 1 128 -5 175 -14z"/>
</g>
</svg>
